# MagicaVoxel @ Ephtracy

# group
o StandWithFlasks2

# material
mtllib StandwithFlask-0-StandWithFlasks2.mtl
usemtl palette

# normals
vn -1 0 0
vn 1 0 0
vn 0 0 1
vn 0 0 -1
vn 0 -1 0
vn 0 1 0

# texcoords
vt 0.00585938 0.5
vt 0.00976562 0.5
vt 0.0136719 0.5
vt 0.0175781 0.5
vt 0.0214844 0.5
vt 0.0253906 0.5
vt 0.0292969 0.5
vt 0.0332031 0.5
vt 0.0371094 0.5
vt 0.0410156 0.5
vt 0.0449219 0.5

# verts
v -0.7 0 0.2
v -0.7 0 -0.2
v -0.7 0.8 0.2
v -0.7 0.8 0.1
v -0.7 0.8 -0.1
v -0.7 0.8 -0.2
v -0.7 0.9 0.1
v -0.7 0.9 -0.1
v -0.5 0.1 0
v -0.5 0.1 -0.1
v -0.5 0.3 0
v -0.5 0.3 -0.1
v -0.5 0.4 0
v -0.5 0.4 -0.1
v -0.5 0.5 0
v -0.5 0.5 -0.1
v -0.3 0.1 0
v -0.3 0.1 -0.1
v -0.3 0.3 0
v -0.3 0.3 -0.1
v -0.3 0.4 0
v -0.3 0.4 -0.1
v -0.3 0.5 0
v -0.3 0.5 -0.1
v -0.3 0.6 0
v -0.3 0.6 -0.1
v 0 0.1 0
v 0 0.1 -0.1
v 0 0.3 0
v 0 0.3 -0.1
v 0 0.4 0
v 0 0.4 -0.1
v 0 0.5 0
v 0 0.5 -0.1
v 0 0.6 0
v 0 0.6 -0.1
v 0.3 0.1 0
v 0.3 0.1 -0.1
v 0.3 0.3 0
v 0.3 0.3 -0.1
v 0.3 0.4 0
v 0.3 0.4 -0.1
v 0.3 0.5 0
v 0.3 0.5 -0.1
v 0.3 0.6 0
v 0.3 0.6 -0.1
v 0.5 0.1 0
v 0.5 0.1 -0.1
v 0.5 0.3 0
v 0.5 0.3 -0.1
v 0.5 0.4 0
v 0.5 0.4 -0.1
v 0.5 0.6 0
v 0.5 0.6 -0.1
v 0.5 0.7 0
v 0.5 0.7 -0.1
v 0.7 0.1 0.2
v 0.7 0.1 -0.2
v 0.7 0.3 0.2
v 0.7 0.3 -0.2
v 0.7 0.4 0.2
v 0.7 0.4 -0.2
v 0.7 0.8 0.2
v 0.7 0.8 0.1
v 0.7 0.8 -0.1
v 0.7 0.8 -0.2
v 0.7 0.9 0.1
v 0.7 0.9 -0.1
v -0.6 0.1 0.2
v -0.6 0.1 -0.2
v -0.6 0.3 0.2
v -0.6 0.3 -0.2
v -0.6 0.4 0.2
v -0.6 0.4 -0.2
v -0.6 0.8 0.2
v -0.6 0.8 0.1
v -0.6 0.8 -0.1
v -0.6 0.8 -0.2
v -0.6 0.9 0.1
v -0.6 0.9 -0.1
v -0.4 0.1 0
v -0.4 0.1 -0.1
v -0.4 0.3 0
v -0.4 0.3 -0.1
v -0.4 0.4 0
v -0.4 0.4 -0.1
v -0.4 0.5 0
v -0.4 0.5 -0.1
v -0.2 0.1 0
v -0.2 0.1 -0.1
v -0.2 0.3 0
v -0.2 0.3 -0.1
v -0.2 0.4 0
v -0.2 0.4 -0.1
v -0.2 0.5 0
v -0.2 0.5 -0.1
v -0.2 0.6 0
v -0.2 0.6 -0.1
v 0.1 0.1 0
v 0.1 0.1 -0.1
v 0.1 0.3 0
v 0.1 0.3 -0.1
v 0.1 0.4 0
v 0.1 0.4 -0.1
v 0.1 0.5 0
v 0.1 0.5 -0.1
v 0.1 0.6 0
v 0.1 0.6 -0.1
v 0.4 0.1 0
v 0.4 0.1 -0.1
v 0.4 0.3 0
v 0.4 0.3 -0.1
v 0.4 0.4 0
v 0.4 0.4 -0.1
v 0.4 0.5 0
v 0.4 0.5 -0.1
v 0.4 0.6 0
v 0.4 0.6 -0.1
v 0.6 0.1 0
v 0.6 0.1 -0.1
v 0.6 0.3 0
v 0.6 0.3 -0.1
v 0.6 0.4 0
v 0.6 0.4 -0.1
v 0.6 0.6 0
v 0.6 0.6 -0.1
v 0.6 0.7 0
v 0.6 0.7 -0.1
v 0.8 0 0.2
v 0.8 0 -0.2
v 0.8 0.8 0.2
v 0.8 0.8 0.1
v 0.8 0.8 -0.1
v 0.8 0.8 -0.2
v 0.8 0.9 0.1
v 0.8 0.9 -0.1
v -0.7 0 0.2
v -0.7 0.8 0.2
v -0.6 0.1 0.2
v -0.6 0.3 0.2
v -0.6 0.4 0.2
v -0.6 0.8 0.2
v 0.7 0.1 0.2
v 0.7 0.3 0.2
v 0.7 0.4 0.2
v 0.7 0.8 0.2
v 0.8 0 0.2
v 0.8 0.8 0.2
v -0.7 0.8 0.1
v -0.7 0.9 0.1
v -0.6 0.8 0.1
v -0.6 0.9 0.1
v 0.7 0.8 0.1
v 0.7 0.9 0.1
v 0.8 0.8 0.1
v 0.8 0.9 0.1
v -0.5 0.1 0
v -0.5 0.3 0
v -0.5 0.4 0
v -0.5 0.5 0
v -0.4 0.1 0
v -0.4 0.3 0
v -0.4 0.4 0
v -0.4 0.5 0
v -0.3 0.1 0
v -0.3 0.3 0
v -0.3 0.4 0
v -0.3 0.5 0
v -0.3 0.6 0
v -0.2 0.1 0
v -0.2 0.3 0
v -0.2 0.4 0
v -0.2 0.5 0
v -0.2 0.6 0
v 0 0.1 0
v 0 0.3 0
v 0 0.4 0
v 0 0.5 0
v 0 0.6 0
v 0.1 0.1 0
v 0.1 0.3 0
v 0.1 0.4 0
v 0.1 0.5 0
v 0.1 0.6 0
v 0.3 0.1 0
v 0.3 0.3 0
v 0.3 0.4 0
v 0.3 0.5 0
v 0.3 0.6 0
v 0.4 0.1 0
v 0.4 0.3 0
v 0.4 0.4 0
v 0.4 0.5 0
v 0.4 0.6 0
v 0.5 0.1 0
v 0.5 0.3 0
v 0.5 0.4 0
v 0.5 0.6 0
v 0.5 0.7 0
v 0.6 0.1 0
v 0.6 0.3 0
v 0.6 0.4 0
v 0.6 0.6 0
v 0.6 0.7 0
v -0.7 0.8 -0.1
v -0.7 0.9 -0.1
v -0.6 0.8 -0.1
v -0.6 0.9 -0.1
v -0.5 0.1 -0.1
v -0.5 0.3 -0.1
v -0.5 0.4 -0.1
v -0.5 0.5 -0.1
v -0.4 0.1 -0.1
v -0.4 0.3 -0.1
v -0.4 0.4 -0.1
v -0.4 0.5 -0.1
v -0.3 0.1 -0.1
v -0.3 0.3 -0.1
v -0.3 0.4 -0.1
v -0.3 0.5 -0.1
v -0.3 0.6 -0.1
v -0.2 0.1 -0.1
v -0.2 0.3 -0.1
v -0.2 0.4 -0.1
v -0.2 0.5 -0.1
v -0.2 0.6 -0.1
v 0 0.1 -0.1
v 0 0.3 -0.1
v 0 0.4 -0.1
v 0 0.5 -0.1
v 0 0.6 -0.1
v 0.1 0.1 -0.1
v 0.1 0.3 -0.1
v 0.1 0.4 -0.1
v 0.1 0.5 -0.1
v 0.1 0.6 -0.1
v 0.3 0.1 -0.1
v 0.3 0.3 -0.1
v 0.3 0.4 -0.1
v 0.3 0.5 -0.1
v 0.3 0.6 -0.1
v 0.4 0.1 -0.1
v 0.4 0.3 -0.1
v 0.4 0.4 -0.1
v 0.4 0.5 -0.1
v 0.4 0.6 -0.1
v 0.5 0.1 -0.1
v 0.5 0.3 -0.1
v 0.5 0.4 -0.1
v 0.5 0.6 -0.1
v 0.5 0.7 -0.1
v 0.6 0.1 -0.1
v 0.6 0.3 -0.1
v 0.6 0.4 -0.1
v 0.6 0.6 -0.1
v 0.6 0.7 -0.1
v 0.7 0.8 -0.1
v 0.7 0.9 -0.1
v 0.8 0.8 -0.1
v 0.8 0.9 -0.1
v -0.7 0 -0.2
v -0.7 0.8 -0.2
v -0.6 0.1 -0.2
v -0.6 0.3 -0.2
v -0.6 0.4 -0.2
v -0.6 0.8 -0.2
v 0.7 0.1 -0.2
v 0.7 0.3 -0.2
v 0.7 0.4 -0.2
v 0.7 0.8 -0.2
v 0.8 0 -0.2
v 0.8 0.8 -0.2
v -0.7 0 0.2
v 0.8 0 0.2
v -0.7 0 -0.2
v 0.8 0 -0.2
v -0.6 0.3 0.2
v 0.7 0.3 0.2
v -0.5 0.3 0
v -0.4 0.3 0
v -0.3 0.3 0
v -0.2 0.3 0
v 0 0.3 0
v 0.1 0.3 0
v 0.3 0.3 0
v 0.4 0.3 0
v 0.5 0.3 0
v 0.6 0.3 0
v -0.5 0.3 -0.1
v -0.4 0.3 -0.1
v -0.3 0.3 -0.1
v -0.2 0.3 -0.1
v 0 0.3 -0.1
v 0.1 0.3 -0.1
v 0.3 0.3 -0.1
v 0.4 0.3 -0.1
v 0.5 0.3 -0.1
v 0.6 0.3 -0.1
v -0.6 0.3 -0.2
v 0.7 0.3 -0.2
v -0.6 0.1 0.2
v 0.7 0.1 0.2
v -0.5 0.1 0
v -0.4 0.1 0
v -0.3 0.1 0
v -0.2 0.1 0
v 0 0.1 0
v 0.1 0.1 0
v 0.3 0.1 0
v 0.4 0.1 0
v 0.5 0.1 0
v 0.6 0.1 0
v -0.5 0.1 -0.1
v -0.4 0.1 -0.1
v -0.3 0.1 -0.1
v -0.2 0.1 -0.1
v 0 0.1 -0.1
v 0.1 0.1 -0.1
v 0.3 0.1 -0.1
v 0.4 0.1 -0.1
v 0.5 0.1 -0.1
v 0.6 0.1 -0.1
v -0.6 0.1 -0.2
v 0.7 0.1 -0.2
v -0.6 0.4 0.2
v 0.7 0.4 0.2
v -0.5 0.4 0
v -0.4 0.4 0
v -0.3 0.4 0
v -0.2 0.4 0
v 0 0.4 0
v 0.1 0.4 0
v 0.3 0.4 0
v 0.4 0.4 0
v 0.5 0.4 0
v 0.6 0.4 0
v -0.5 0.4 -0.1
v -0.4 0.4 -0.1
v -0.3 0.4 -0.1
v -0.2 0.4 -0.1
v 0 0.4 -0.1
v 0.1 0.4 -0.1
v 0.3 0.4 -0.1
v 0.4 0.4 -0.1
v 0.5 0.4 -0.1
v 0.6 0.4 -0.1
v -0.6 0.4 -0.2
v 0.7 0.4 -0.2
v -0.5 0.5 0
v -0.4 0.5 0
v -0.5 0.5 -0.1
v -0.4 0.5 -0.1
v -0.3 0.6 0
v -0.2 0.6 0
v 0 0.6 0
v 0.1 0.6 0
v 0.3 0.6 0
v 0.4 0.6 0
v -0.3 0.6 -0.1
v -0.2 0.6 -0.1
v 0 0.6 -0.1
v 0.1 0.6 -0.1
v 0.3 0.6 -0.1
v 0.4 0.6 -0.1
v 0.5 0.7 0
v 0.6 0.7 0
v 0.5 0.7 -0.1
v 0.6 0.7 -0.1
v -0.7 0.8 0.2
v -0.6 0.8 0.2
v 0.7 0.8 0.2
v 0.8 0.8 0.2
v -0.7 0.8 0.1
v -0.6 0.8 0.1
v 0.7 0.8 0.1
v 0.8 0.8 0.1
v -0.7 0.8 -0.1
v -0.6 0.8 -0.1
v 0.7 0.8 -0.1
v 0.8 0.8 -0.1
v -0.7 0.8 -0.2
v -0.6 0.8 -0.2
v 0.7 0.8 -0.2
v 0.8 0.8 -0.2
v -0.7 0.9 0.1
v -0.6 0.9 0.1
v 0.7 0.9 0.1
v 0.8 0.9 0.1
v -0.7 0.9 -0.1
v -0.6 0.9 -0.1
v 0.7 0.9 -0.1
v 0.8 0.9 -0.1

# faces
f 3/8/1 2/8/1 1/8/1
f 4/8/1 2/8/1 3/8/1
f 5/8/1 2/8/1 4/8/1
f 6/8/1 2/8/1 5/8/1
f 7/8/1 5/8/1 4/8/1
f 8/8/1 5/8/1 7/8/1
f 11/3/1 10/3/1 9/3/1
f 12/3/1 10/3/1 11/3/1
f 15/5/1 14/5/1 13/5/1
f 16/5/1 14/5/1 15/5/1
f 19/10/1 18/10/1 17/10/1
f 20/10/1 18/10/1 19/10/1
f 23/10/1 22/10/1 21/10/1
f 24/10/1 22/10/1 23/10/1
f 25/4/1 24/4/1 23/4/1
f 26/4/1 24/4/1 25/4/1
f 29/11/1 28/11/1 27/11/1
f 30/11/1 28/11/1 29/11/1
f 33/11/1 32/11/1 31/11/1
f 34/11/1 32/11/1 33/11/1
f 35/7/1 34/7/1 33/7/1
f 36/7/1 34/7/1 35/7/1
f 39/6/1 38/6/1 37/6/1
f 40/6/1 38/6/1 39/6/1
f 43/6/1 42/6/1 41/6/1
f 44/6/1 42/6/1 43/6/1
f 45/1/1 44/1/1 43/1/1
f 46/1/1 44/1/1 45/1/1
f 49/9/1 48/9/1 47/9/1
f 50/9/1 48/9/1 49/9/1
f 53/9/1 52/9/1 51/9/1
f 54/9/1 52/9/1 53/9/1
f 55/2/1 54/2/1 53/2/1
f 56/2/1 54/2/1 55/2/1
f 59/8/1 58/8/1 57/8/1
f 60/8/1 58/8/1 59/8/1
f 63/8/1 62/8/1 61/8/1
f 64/8/1 62/8/1 63/8/1
f 65/8/1 62/8/1 64/8/1
f 66/8/1 62/8/1 65/8/1
f 67/8/1 65/8/1 64/8/1
f 68/8/1 65/8/1 67/8/1
f 69/8/2 70/8/2 71/8/2
f 71/8/2 70/8/2 72/8/2
f 73/8/2 74/8/2 75/8/2
f 75/8/2 74/8/2 76/8/2
f 76/8/2 74/8/2 77/8/2
f 77/8/2 74/8/2 78/8/2
f 76/8/2 77/8/2 79/8/2
f 79/8/2 77/8/2 80/8/2
f 81/3/2 82/3/2 83/3/2
f 83/3/2 82/3/2 84/3/2
f 85/5/2 86/5/2 87/5/2
f 87/5/2 86/5/2 88/5/2
f 89/10/2 90/10/2 91/10/2
f 91/10/2 90/10/2 92/10/2
f 93/10/2 94/10/2 95/10/2
f 95/10/2 94/10/2 96/10/2
f 95/4/2 96/4/2 97/4/2
f 97/4/2 96/4/2 98/4/2
f 99/11/2 100/11/2 101/11/2
f 101/11/2 100/11/2 102/11/2
f 103/11/2 104/11/2 105/11/2
f 105/11/2 104/11/2 106/11/2
f 105/7/2 106/7/2 107/7/2
f 107/7/2 106/7/2 108/7/2
f 109/6/2 110/6/2 111/6/2
f 111/6/2 110/6/2 112/6/2
f 113/6/2 114/6/2 115/6/2
f 115/6/2 114/6/2 116/6/2
f 115/1/2 116/1/2 117/1/2
f 117/1/2 116/1/2 118/1/2
f 119/9/2 120/9/2 121/9/2
f 121/9/2 120/9/2 122/9/2
f 123/9/2 124/9/2 125/9/2
f 125/9/2 124/9/2 126/9/2
f 125/2/2 126/2/2 127/2/2
f 127/2/2 126/2/2 128/2/2
f 129/8/2 130/8/2 131/8/2
f 131/8/2 130/8/2 132/8/2
f 132/8/2 130/8/2 133/8/2
f 133/8/2 130/8/2 134/8/2
f 132/8/2 133/8/2 135/8/2
f 135/8/2 133/8/2 136/8/2
f 139/8/3 138/8/3 137/8/3
f 140/8/3 138/8/3 139/8/3
f 141/8/3 138/8/3 140/8/3
f 142/8/3 138/8/3 141/8/3
f 143/8/3 139/8/3 137/8/3
f 144/8/3 141/8/3 140/8/3
f 145/8/3 141/8/3 144/8/3
f 147/8/3 143/8/3 137/8/3
f 147/8/3 146/8/3 145/8/3
f 147/8/3 145/8/3 144/8/3
f 147/8/3 144/8/3 143/8/3
f 148/8/3 146/8/3 147/8/3
f 151/8/3 150/8/3 149/8/3
f 152/8/3 150/8/3 151/8/3
f 155/8/3 154/8/3 153/8/3
f 156/8/3 154/8/3 155/8/3
f 161/3/3 158/3/3 157/3/3
f 162/3/3 158/3/3 161/3/3
f 163/5/3 160/5/3 159/5/3
f 164/5/3 160/5/3 163/5/3
f 170/10/3 166/10/3 165/10/3
f 171/10/3 166/10/3 170/10/3
f 172/10/3 168/10/3 167/10/3
f 173/4/3 169/4/3 168/4/3
f 173/10/3 168/10/3 172/10/3
f 174/4/3 169/4/3 173/4/3
f 180/11/3 176/11/3 175/11/3
f 181/11/3 176/11/3 180/11/3
f 182/11/3 178/11/3 177/11/3
f 183/7/3 179/7/3 178/7/3
f 183/11/3 178/11/3 182/11/3
f 184/7/3 179/7/3 183/7/3
f 190/6/3 186/6/3 185/6/3
f 191/6/3 186/6/3 190/6/3
f 192/6/3 188/6/3 187/6/3
f 193/1/3 189/1/3 188/1/3
f 193/6/3 188/6/3 192/6/3
f 194/1/3 189/1/3 193/1/3
f 200/9/3 196/9/3 195/9/3
f 201/9/3 196/9/3 200/9/3
f 202/9/3 198/9/3 197/9/3
f 203/2/3 199/2/3 198/2/3
f 203/9/3 198/9/3 202/9/3
f 204/2/3 199/2/3 203/2/3
f 205/8/4 206/8/4 207/8/4
f 207/8/4 206/8/4 208/8/4
f 209/3/4 210/3/4 213/3/4
f 213/3/4 210/3/4 214/3/4
f 211/5/4 212/5/4 215/5/4
f 215/5/4 212/5/4 216/5/4
f 217/10/4 218/10/4 222/10/4
f 222/10/4 218/10/4 223/10/4
f 219/10/4 220/10/4 224/10/4
f 220/4/4 221/4/4 225/4/4
f 224/10/4 220/10/4 225/10/4
f 225/4/4 221/4/4 226/4/4
f 227/11/4 228/11/4 232/11/4
f 232/11/4 228/11/4 233/11/4
f 229/11/4 230/11/4 234/11/4
f 230/7/4 231/7/4 235/7/4
f 234/11/4 230/11/4 235/11/4
f 235/7/4 231/7/4 236/7/4
f 237/6/4 238/6/4 242/6/4
f 242/6/4 238/6/4 243/6/4
f 239/6/4 240/6/4 244/6/4
f 240/1/4 241/1/4 245/1/4
f 244/6/4 240/6/4 245/6/4
f 245/1/4 241/1/4 246/1/4
f 247/9/4 248/9/4 252/9/4
f 252/9/4 248/9/4 253/9/4
f 249/9/4 250/9/4 254/9/4
f 250/2/4 251/2/4 255/2/4
f 254/9/4 250/9/4 255/9/4
f 255/2/4 251/2/4 256/2/4
f 257/8/4 258/8/4 259/8/4
f 259/8/4 258/8/4 260/8/4
f 261/8/4 262/8/4 263/8/4
f 263/8/4 262/8/4 264/8/4
f 264/8/4 262/8/4 265/8/4
f 265/8/4 262/8/4 266/8/4
f 261/8/4 263/8/4 267/8/4
f 264/8/4 265/8/4 268/8/4
f 268/8/4 265/8/4 269/8/4
f 261/8/4 267/8/4 271/8/4
f 269/8/4 270/8/4 271/8/4
f 268/8/4 269/8/4 271/8/4
f 267/8/4 268/8/4 271/8/4
f 271/8/4 270/8/4 272/8/4
f 275/8/5 274/8/5 273/8/5
f 276/8/5 274/8/5 275/8/5
f 279/8/5 278/8/5 277/8/5
f 280/8/5 278/8/5 279/8/5
f 281/8/5 278/8/5 280/8/5
f 282/8/5 278/8/5 281/8/5
f 283/8/5 278/8/5 282/8/5
f 284/8/5 278/8/5 283/8/5
f 285/8/5 278/8/5 284/8/5
f 286/8/5 278/8/5 285/8/5
f 287/8/5 278/8/5 286/8/5
f 288/8/5 278/8/5 287/8/5
f 289/8/5 279/8/5 277/8/5
f 290/8/5 281/8/5 280/8/5
f 291/8/5 281/8/5 290/8/5
f 292/8/5 283/8/5 282/8/5
f 293/8/5 283/8/5 292/8/5
f 294/8/5 285/8/5 284/8/5
f 295/8/5 285/8/5 294/8/5
f 296/8/5 287/8/5 286/8/5
f 297/8/5 287/8/5 296/8/5
f 298/8/5 278/8/5 288/8/5
f 299/8/5 297/8/5 296/8/5
f 299/8/5 298/8/5 297/8/5
f 299/8/5 295/8/5 294/8/5
f 299/8/5 289/8/5 277/8/5
f 299/8/5 296/8/5 295/8/5
f 299/8/5 293/8/5 292/8/5
f 299/8/5 294/8/5 293/8/5
f 299/8/5 291/8/5 290/8/5
f 299/8/5 292/8/5 291/8/5
f 299/8/5 290/8/5 289/8/5
f 300/8/5 278/8/5 298/8/5
f 300/8/5 298/8/5 299/8/5
f 301/8/6 302/8/6 303/8/6
f 303/8/6 302/8/6 304/8/6
f 304/8/6 302/8/6 305/8/6
f 305/8/6 302/8/6 306/8/6
f 306/8/6 302/8/6 307/8/6
f 307/8/6 302/8/6 308/8/6
f 308/8/6 302/8/6 309/8/6
f 309/8/6 302/8/6 310/8/6
f 310/8/6 302/8/6 311/8/6
f 311/8/6 302/8/6 312/8/6
f 301/8/6 303/8/6 313/8/6
f 304/8/6 305/8/6 314/8/6
f 314/8/6 305/8/6 315/8/6
f 306/8/6 307/8/6 316/8/6
f 316/8/6 307/8/6 317/8/6
f 308/8/6 309/8/6 318/8/6
f 318/8/6 309/8/6 319/8/6
f 310/8/6 311/8/6 320/8/6
f 320/8/6 311/8/6 321/8/6
f 312/8/6 302/8/6 322/8/6
f 320/8/6 321/8/6 323/8/6
f 321/8/6 322/8/6 323/8/6
f 318/8/6 319/8/6 323/8/6
f 301/8/6 313/8/6 323/8/6
f 319/8/6 320/8/6 323/8/6
f 316/8/6 317/8/6 323/8/6
f 317/8/6 318/8/6 323/8/6
f 314/8/6 315/8/6 323/8/6
f 315/8/6 316/8/6 323/8/6
f 313/8/6 314/8/6 323/8/6
f 322/8/6 302/8/6 324/8/6
f 323/8/6 322/8/6 324/8/6
f 325/8/6 326/8/6 327/8/6
f 327/8/6 326/8/6 328/8/6
f 328/8/6 326/8/6 329/8/6
f 329/8/6 326/8/6 330/8/6
f 330/8/6 326/8/6 331/8/6
f 331/8/6 326/8/6 332/8/6
f 332/8/6 326/8/6 333/8/6
f 333/8/6 326/8/6 334/8/6
f 334/8/6 326/8/6 335/8/6
f 335/8/6 326/8/6 336/8/6
f 325/8/6 327/8/6 337/8/6
f 328/8/6 329/8/6 338/8/6
f 338/8/6 329/8/6 339/8/6
f 330/8/6 331/8/6 340/8/6
f 340/8/6 331/8/6 341/8/6
f 332/8/6 333/8/6 342/8/6
f 342/8/6 333/8/6 343/8/6
f 334/8/6 335/8/6 344/8/6
f 344/8/6 335/8/6 345/8/6
f 336/8/6 326/8/6 346/8/6
f 344/8/6 345/8/6 347/8/6
f 345/8/6 346/8/6 347/8/6
f 342/8/6 343/8/6 347/8/6
f 325/8/6 337/8/6 347/8/6
f 343/8/6 344/8/6 347/8/6
f 340/8/6 341/8/6 347/8/6
f 341/8/6 342/8/6 347/8/6
f 338/8/6 339/8/6 347/8/6
f 339/8/6 340/8/6 347/8/6
f 337/8/6 338/8/6 347/8/6
f 346/8/6 326/8/6 348/8/6
f 347/8/6 346/8/6 348/8/6
f 349/5/6 350/5/6 351/5/6
f 351/5/6 350/5/6 352/5/6
f 353/4/6 354/4/6 359/4/6
f 359/4/6 354/4/6 360/4/6
f 355/7/6 356/7/6 361/7/6
f 361/7/6 356/7/6 362/7/6
f 357/1/6 358/1/6 363/1/6
f 363/1/6 358/1/6 364/1/6
f 365/2/6 366/2/6 367/2/6
f 367/2/6 366/2/6 368/2/6
f 369/8/6 370/8/6 373/8/6
f 373/8/6 370/8/6 374/8/6
f 371/8/6 372/8/6 375/8/6
f 375/8/6 372/8/6 376/8/6
f 377/8/6 378/8/6 381/8/6
f 381/8/6 378/8/6 382/8/6
f 379/8/6 380/8/6 383/8/6
f 383/8/6 380/8/6 384/8/6
f 385/8/6 386/8/6 389/8/6
f 389/8/6 386/8/6 390/8/6
f 387/8/6 388/8/6 391/8/6
f 391/8/6 388/8/6 392/8/6
